<?xml version="1.0" encoding="utf-8"?>
<svg xmlns="http://www.w3.org/2000/svg" viewBox="0 0 1254 1254" fill="none" role="img" aria-label="vendai.club">
  <path fill="#03B9CC" d="M798.331 515.586L834.974 515.552C835.857 557.413 835.043 601.623 834.925 643.663L798.838 643.757C798.504 636.087 798.579 627.664 798.512 619.925C778.955 648.718 748.444 650.681 716.568 643.616C705.201 640.087 695.449 635.969 687.936 626.181C680.693 616.757 678.322 602.852 680.117 591.255C685.663 555.424 730.381 548.024 759.937 552.797C778.624 555.816 787.641 562.506 798.398 577.437C798.609 556.93 798.382 536.116 798.331 515.586ZM767.025 618.972C777.204 617.922 788.379 616.859 795.415 608.525C801.635 601.157 797.275 591.349 790.278 586.549C780.222 579.65 763.08 578.208 751.456 579.492C741.054 580.47 728.908 581.147 721.685 589.716C715.173 597.442 718.087 607.118 725.783 612.585C737.226 620.716 753.733 619.399 767.025 618.972Z"/>
  <path fill="#00D1BF" d="M910.521 551.351C934.925 551.458 948.183 558.187 962.371 577.831C962.15 570.093 962.055 562.352 962.087 554.611L997.926 554.561C997.135 583.382 997.761 614.851 997.822 643.825C986.06 643.666 974.296 643.648 962.534 643.769C962.517 639.923 963.08 624.514 961.009 622.571L959.442 624.265C948.517 639.397 934.182 645.761 915.758 646.514C896.927 647.284 875.754 644.582 861.121 631.631C843.989 616.468 842.962 586.227 858.661 569.718C872.137 555.493 891.775 552.124 910.521 551.351ZM929.624 619.26C940.74 618.228 963.785 614.889 962.176 598.665C960.379 580.529 930.771 578.327 916.657 579.491C907.134 580.318 895.719 581.392 888.807 588.955C882.186 596.201 884.637 606.706 892.082 612.36C900.915 619.068 919.029 621.461 929.624 619.26Z"/>
  <path fill="#3982F1" d="M423.193 551.941C445.645 549.013 483.373 553.366 500.085 570.103C510.527 580.561 511.559 591.836 511.406 605.783C505.755 605.628 499.777 605.583 494.124 605.72C462.061 606.497 429.135 604.619 397.175 605.893C404.707 621.004 418.02 620.64 432.297 621.704C448.048 622.878 456.323 619.976 469.952 613.565C471.828 612.683 483.852 612.94 486.996 612.96L510.849 613.1C501.598 636.861 482.567 643.022 458.555 645.458C429.997 648.355 394.426 648.344 370.531 630.538C353.756 618.038 352.386 588.713 365.654 573.212C379.199 557.412 403.439 553.449 423.193 551.941ZM397.267 590.457L433.967 590.387L471.171 590.23C462.04 578.476 449.249 575.542 434.906 576.438C419.276 577.52 407.664 576.793 397.267 590.457Z"/>
  <defs>
    <linearGradient id="gradient_0" gradientUnits="userSpaceOnUse" x1="664.86328" y1="596.93481" x2="525.25861" y2="597.25873">
      <stop offset="0" stop-color="#0FAAD6"/>
      <stop offset="1" stop-color="#2696E4"/>
    </linearGradient>
  </defs>
  <path fill="url(#gradient_0)" d="M606.534 551.905C622.386 549.497 643.37 553.54 655.078 565.287C668.466 578.72 666.321 594.898 666.287 612.308L666.287 643.596L627.8 643.611C627.555 631.174 629.848 598.829 624.816 589.143C622.833 585.324 619.128 582.936 615.067 581.774C599.897 577.435 582.945 579.73 569.343 587.419C558.422 597.023 561.471 629.342 561.671 643.546L524.712 643.53C524.636 613.922 524.719 584.315 524.959 554.709L561.822 554.696L561.728 579.678C563.104 577.609 564.565 575.598 566.107 573.65C577.619 559.153 588.434 554.049 606.534 551.905Z"/>
  <path fill="#3982F1" d="M315.434 554.658C329.063 554.321 343.728 554.586 357.403 554.694C353.676 561.048 349.833 567.332 345.875 573.545L302.338 643.659L260.246 643.608C241.838 615.082 225.394 583.914 206.252 554.675C220.177 554.237 236.003 554.574 250.073 554.562L282.59 614.375C292.868 594.108 303.822 574.191 315.434 554.658Z"/>
  <path fill="#00D1BF" d="M1012.79 554.633L1048.35 554.629L1048.3 643.628C1036.88 643.346 1024.38 643.619 1012.87 643.636L1012.79 554.633Z"/>
  <path fill="#00D1BF" d="M986.791 669.58L1001.06 669.396C1001 677.215 1000.99 685.035 1001.04 692.854C1023.06 669.435 1065.11 691.714 1041.69 715.954C1027.3 726.052 1011.17 723.626 1000.55 709.739L1000.54 720.746L986.64 720.783C986.234 709.198 985.895 680.514 986.791 669.58ZM1022.17 711.047C1043.11 706.244 1031.96 691.014 1012.72 693.261C990.214 698.924 1004.3 712.659 1022.17 711.047Z"/>
  <path fill="#03B9CC" d="M863.784 682.975C878.772 681.446 890.406 684.319 896.56 699.15L882.532 699.217C874.576 693.078 868.187 691.313 857.974 694.17C847.51 697.097 851.65 709.498 860.99 711.135C869.887 712.694 875.299 710.944 882.696 706.249C885.659 704.772 892.879 705.377 896.475 705.482C893.049 715.675 886.431 719.277 876.037 721.169C865.534 723.081 853.131 721.941 844.1 715.868C835.881 710.342 834.627 698.96 840.733 691.338C845.912 685.042 855.936 683.639 863.784 682.975Z"/>
  <path fill="#00D1BF" d="M923.497 684.179L938.282 684.152C938.074 690.348 936.623 703.786 940.931 708.42C945.368 713.191 957.134 711.441 961.336 706.816C965.872 701.822 964.365 690.876 964.083 684.352L978.609 684.482L978.678 705.681L978.777 720.714L964.968 720.703L964.817 710.045C963.995 711 963.15 711.934 962.283 712.847C956.803 718.586 950.084 721.735 942.122 721.77C920.343 721.865 923.222 698.938 923.497 684.179Z"/>
  <path fill="#00D1BF" d="M1012.61 515.5L1048.45 515.49L1048.41 540.757C1036.69 540.6 1024.46 540.76 1012.7 540.764L1012.61 515.5Z"/>
  <path fill="#00D1BF" d="M902.013 669.498L916.528 669.443L916.562 720.714L902.303 720.68L902.013 669.498Z"/>
  <path fill="#03B9CC" d="M815.206 709.513L830.751 709.532L830.754 720.794L815.369 720.734L815.206 709.513Z"/>
</svg>
